<svg width="200" height="150" viewBox="0 0 200 150" xmlns="http://www.w3.org/2000/svg"><defs><linearGradient id="neonGradient" x1="0%" y1="0%" x2="100%" y2="100%"><stop offset="0%" stop-color="#FF00FF" /><stop offset="50%" stop-color="#00FFFF" /><stop offset="100%" stop-color="#FF00FF" /></linearGradient><linearGradient id="buildingGradient1" x1="0%" y1="0%" x2="100%" y2="100%"><stop offset="0%" stop-color="#AA00AA" opacity="0.6" /><stop offset="100%" stop-color="#0088AA" opacity="0.6" /></linearGradient><linearGradient id="buildingGradient2" x1="0%" y1="0%" x2="100%" y2="100%"><stop offset="0%" stop-color="#8800AA" opacity="0.5" /><stop offset="100%" stop-color="#0099BB" opacity="0.5" /></linearGradient><linearGradient id="skyGradient" x1="0%" y1="0%" x2="0%" y2="100%"><stop offset="0%" stop-color="#0A0A30" /><stop offset="100%" stop-color="#1A0A40" /></linearGradient><radialGradient id="moonGlow" cx="170" cy="25" r="13" gradientUnits="userSpaceOnUse"><stop offset="0%" stop-color="#FFFFFF" /><stop offset="70%" stop-color="#FFFFAA" /><stop offset="100%" stop-color="#FFFFFF00" /></radialGradient><filter id="neonGlow"><feGaussianBlur stdDeviation="3.5" result="blur" /><feMerge><feMergeNode in="blur" /><feMergeNode in="SourceGraphic" /></feMerge></filter><filter id="textGlow"><feGaussianBlur stdDeviation="5" result="blur" /><feMerge><feMergeNode in="blur" /><feMergeNode in="SourceGraphic" /></feMerge></filter><filter id="cityGlow"><feGaussianBlur stdDeviation="1" result="blur" /><feMerge><feMergeNode in="blur" /><feMergeNode in="SourceGraphic" /></feMerge></filter></defs><rect width="200" height="150" fill="url(#skyGradient)" rx="5" ry="5" /><circle cx="170" cy="25" r="13" fill="url(#moonGlow)" /><!-- Wider buildings in background --><g filter="url(#cityGlow)"><!-- Background wider buildings --><rect x="0" y="65" width="25" height="85" fill="url(#buildingGradient2)" /><rect x="25" y="85" width="30" height="65" fill="url(#buildingGradient1)" /><rect x="55" y="55" width="20" height="95" fill="url(#buildingGradient2)" /><rect x="75" y="45" width="35" height="105" fill="url(#buildingGradient1)" /><rect x="110" y="75" width="25" height="75" fill="url(#buildingGradient2)" /><rect x="135" y="40" width="30" height="110" fill="url(#buildingGradient1)" /><rect x="165" y="60" width="35" height="90" fill="url(#buildingGradient2)" /><!-- Building details --><rect x="5" y="75" width="2" height="75" fill="#FFFFFF" opacity="0.3" /><rect x="15" y="75" width="2" height="75" fill="#FFFFFF" opacity="0.3" /><rect x="30" y="95" width="2" height="55" fill="#FFFFFF" opacity="0.3" /><rect x="40" y="95" width="2" height="55" fill="#FFFFFF" opacity="0.3" /><rect x="50" y="95" width="2" height="55" fill="#FFFFFF" opacity="0.3" /><rect x="60" y="65" width="2" height="85" fill="#FFFFFF" opacity="0.3" /><rect x="70" y="65" width="2" height="85" fill="#FFFFFF" opacity="0.3" /><rect x="85" y="55" width="2" height="95" fill="#FFFFFF" opacity="0.3" /><rect x="100" y="55" width="2" height="95" fill="#FFFFFF" opacity="0.3" /><rect x="115" y="85" width="2" height="65" fill="#FFFFFF" opacity="0.3" /><rect x="130" y="85" width="2" height="65" fill="#FFFFFF" opacity="0.3" /><rect x="145" y="50" width="2" height="100" fill="#FFFFFF" opacity="0.3" /><rect x="160" y="50" width="2" height="100" fill="#FFFFFF" opacity="0.3" /><rect x="175" y="70" width="2" height="80" fill="#FFFFFF" opacity="0.3" /><rect x="190" y="70" width="2" height="80" fill="#FFFFFF" opacity="0.3" /><!-- Window patterns on buildings --><g opacity="0.7"><rect x="8" y="80" width="3" height="3" fill="#FF99FF" /><rect x="8" y="90" width="3" height="3" fill="#FF99FF" /><rect x="8" y="100" width="3" height="3" fill="#FF99FF" /><rect x="8" y="110" width="3" height="3" fill="#FF99FF" /><rect x="8" y="120" width="3" height="3" fill="#FF99FF" /><rect x="8" y="130" width="3" height="3" fill="#FF99FF" /><rect x="18" y="80" width="3" height="3" fill="#99FFFF" /><rect x="18" y="90" width="3" height="3" fill="#99FFFF" /><rect x="18" y="100" width="3" height="3" fill="#99FFFF" /><rect x="18" y="110" width="3" height="3" fill="#99FFFF" /><rect x="18" y="120" width="3" height="3" fill="#99FFFF" /><rect x="18" y="130" width="3" height="3" fill="#99FFFF" /><rect x="33" y="100" width="3" height="3" fill="#FF99FF" /><rect x="33" y="110" width="3" height="3" fill="#FF99FF" /><rect x="33" y="120" width="3" height="3" fill="#FF99FF" /><rect x="33" y="130" width="3" height="3" fill="#FF99FF" /><rect x="43" y="100" width="3" height="3" fill="#99FFFF" /><rect x="43" y="110" width="3" height="3" fill="#99FFFF" /><rect x="43" y="120" width="3" height="3" fill="#99FFFF" /><rect x="43" y="130" width="3" height="3" fill="#99FFFF" /><rect x="63" y="70" width="3" height="3" fill="#FF99FF" /><rect x="63" y="80" width="3" height="3" fill="#FF99FF" /><rect x="63" y="90" width="3" height="3" fill="#FF99FF" /><rect x="63" y="100" width="3" height="3" fill="#FF99FF" /><rect x="63" y="110" width="3" height="3" fill="#FF99FF" /><rect x="63" y="120" width="3" height="3" fill="#FF99FF" /><rect x="63" y="130" width="3" height="3" fill="#FF99FF" /><rect x="88" y="60" width="3" height="3" fill="#99FFFF" /><rect x="88" y="70" width="3" height="3" fill="#99FFFF" /><rect x="88" y="80" width="3" height="3" fill="#99FFFF" /><rect x="88" y="90" width="3" height="3" fill="#99FFFF" /><rect x="88" y="100" width="3" height="3" fill="#99FFFF" /><rect x="88" y="110" width="3" height="3" fill="#99FFFF" /><rect x="88" y="120" width="3" height="3" fill="#99FFFF" /><rect x="88" y="130" width="3" height="3" fill="#99FFFF" /><rect x="103" y="60" width="3" height="3" fill="#FF99FF" /><rect x="103" y="70" width="3" height="3" fill="#FF99FF" /><rect x="103" y="80" width="3" height="3" fill="#FF99FF" /><rect x="103" y="90" width="3" height="3" fill="#FF99FF" /><rect x="103" y="100" width="3" height="3" fill="#FF99FF" /><rect x="103" y="110" width="3" height="3" fill="#FF99FF" /><rect x="103" y="120" width="3" height="3" fill="#FF99FF" /><rect x="103" y="130" width="3" height="3" fill="#FF99FF" /><rect x="118" y="90" width="3" height="3" fill="#99FFFF" /><rect x="118" y="100" width="3" height="3" fill="#99FFFF" /><rect x="118" y="110" width="3" height="3" fill="#99FFFF" /><rect x="118" y="120" width="3" height="3" fill="#99FFFF" /><rect x="118" y="130" width="3" height="3" fill="#99FFFF" /><rect x="133" y="90" width="3" height="3" fill="#FF99FF" /><rect x="133" y="100" width="3" height="3" fill="#FF99FF" /><rect x="133" y="110" width="3" height="3" fill="#FF99FF" /><rect x="133" y="120" width="3" height="3" fill="#FF99FF" /><rect x="133" y="130" width="3" height="3" fill="#FF99FF" /><rect x="148" y="60" width="3" height="3" fill="#99FFFF" /><rect x="148" y="70" width="3" height="3" fill="#99FFFF" /><rect x="148" y="80" width="3" height="3" fill="#99FFFF" /><rect x="148" y="90" width="3" height="3" fill="#99FFFF" /><rect x="148" y="100" width="3" height="3" fill="#99FFFF" /><rect x="148" y="110" width="3" height="3" fill="#99FFFF" /><rect x="148" y="120" width="3" height="3" fill="#99FFFF" /><rect x="148" y="130" width="3" height="3" fill="#99FFFF" /><rect x="163" y="60" width="3" height="3" fill="#FF99FF" /><rect x="163" y="70" width="3" height="3" fill="#FF99FF" /><rect x="163" y="80" width="3" height="3" fill="#FF99FF" /><rect x="163" y="90" width="3" height="3" fill="#FF99FF" /><rect x="163" y="100" width="3" height="3" fill="#FF99FF" /><rect x="163" y="110" width="3" height="3" fill="#FF99FF" /><rect x="163" y="120" width="3" height="3" fill="#FF99FF" /><rect x="163" y="130" width="3" height="3" fill="#FF99FF" /><rect x="178" y="80" width="3" height="3" fill="#99FFFF" /><rect x="178" y="90" width="3" height="3" fill="#99FFFF" /><rect x="178" y="100" width="3" height="3" fill="#99FFFF" /><rect x="178" y="110" width="3" height="3" fill="#99FFFF" /><rect x="178" y="120" width="3" height="3" fill="#99FFFF" /><rect x="178" y="130" width="3" height="3" fill="#99FFFF" /><rect x="193" y="80" width="3" height="3" fill="#FF99FF" /><rect x="193" y="90" width="3" height="3" fill="#FF99FF" /><rect x="193" y="100" width="3" height="3" fill="#FF99FF" /><rect x="193" y="110" width="3" height="3" fill="#FF99FF" /><rect x="193" y="120" width="3" height="3" fill="#FF99FF" /><rect x="193" y="130" width="3" height="3" fill="#FF99FF" /></g></g><!-- Subtle shimmer effect --><g opacity="0.2"><path d="M0,45 Q100,30 200,50" stroke="#FFFFFF" stroke-width="0.5" fill="none" /><path d="M0,75 Q100,60 200,80" stroke="#FFFFFF" stroke-width="0.5" fill="none" /></g><!-- Enhanced RACO text with stronger visibility --><text x="15" y="115" font-family="Arial, sans-serif" font-size="60" font-weight="bold" fill="url(#neonGradient)" stroke="url(#neonGradient)" stroke-width="3" filter="url(#textGlow)" textLength="170">RACO</text><!-- Extra overlay for more intensity --><text x="15" y="115" font-family="Arial, sans-serif" font-size="60" font-weight="bold" fill="#FFFFFF" opacity="0.7" textLength="170">RACO</text><!-- Border with rounded corners and glow --><rect width="200" height="150" fill="none" stroke="url(#neonGradient)" stroke-width="3" rx="5" ry="5" filter="url(#neonGlow)"/></svg>
